<svg width="1280" height="720" xmlns="http://www.w3.org/2000/svg" xmlns:xlink="http://www.w3.org/1999/xlink" overflow="hidden"><defs><clipPath id="clip0"><path d="M447.279 20.355 675.542-16.7369 720.357 259.056 492.095 296.148Z" fill-rule="evenodd" clip-rule="evenodd"/></clipPath><clipPath id="clip1"><path d="M447.279 20.355 675.542-16.7369 720.357 259.056 492.095 296.148Z" fill-rule="evenodd" clip-rule="evenodd"/></clipPath><clipPath id="clip2"><path d="M447.279 20.355 675.542-16.7369 720.357 259.056 492.095 296.148Z" fill-rule="evenodd" clip-rule="evenodd"/></clipPath></defs><g><rect x="0" y="0" width="1280" height="720" fill="#FFFFFF"/><g><g><g><path d="M59.6875 38.7969 29.8438 56.9021 95.5 96.6937 125.344 78.5885Z" transform="matrix(1 0 0 1.22513 974 209)"/><path d="M161.156 56.9021 95.5 17.1104 67.2479 34.2208 132.904 74.0125Z" transform="matrix(1 0 0 1.22513 974 209)"/><path d="M29.8438 72.8187 29.8438 136.485 91.5208 173.89 91.5208 103.657 29.8438 66.2531Z" transform="matrix(1 0 0 1.22513 974 209)"/><path d="M121.365 114.6 107.438 122.558 107.438 108.631 121.365 100.673 121.365 114.6ZM99.4792 103.657 99.4792 173.89 161.156 136.485 161.156 66.2531 99.4792 103.657Z" transform="matrix(1 0 0 1.22513 974 209)"/></g></g></g><g><g><g><path d="M71.3958 43.4583 226.604 43.4583 226.604 254.542 71.3958 254.542 71.3958 43.4583ZM52.7708 273.167 245.229 273.167 245.229 24.8333 52.7708 24.8333 52.7708 273.167Z" transform="matrix(1 0 0 1.22483 0 88)"/><path d="M90.0208 71.3958 142.792 71.3958 142.792 83.8125 90.0208 83.8125Z" transform="matrix(1 0 0 1.22483 0 88)"/><path d="M90.0208 121.062 142.792 121.062 142.792 133.479 90.0208 133.479Z" transform="matrix(1 0 0 1.22483 0 88)"/><path d="M90.0208 220.396 142.792 220.396 142.792 232.812 90.0208 232.812Z" transform="matrix(1 0 0 1.22483 0 88)"/><path d="M90.0208 170.729 142.792 170.729 142.792 183.146 90.0208 183.146Z" transform="matrix(1 0 0 1.22483 0 88)"/><path d="M207.979 64.5667 199.287 55.875 178.8 76.3625 170.729 68.2917 162.038 76.9833 178.8 93.7458Z" transform="matrix(1 0 0 1.22483 0 88)"/><path d="M207.979 114.233 199.287 105.542 178.8 126.029 170.729 117.958 162.038 126.65 178.8 143.413Z" transform="matrix(1 0 0 1.22483 0 88)"/><path d="M207.979 163.9 199.287 155.208 178.8 175.696 170.729 167.625 162.038 176.317 178.8 193.079Z" transform="matrix(1 0 0 1.22483 0 88)"/><path d="M207.979 212.946 199.287 204.254 178.8 224.742 170.729 216.671 162.038 225.363 178.8 242.125Z" transform="matrix(1 0 0 1.22483 0 88)"/></g></g></g><g><g><g><path d="M162.5 203.125C140.156 203.125 121.875 184.844 121.875 162.5 121.875 140.156 140.156 121.875 162.5 121.875 184.844 121.875 203.125 140.156 203.125 162.5 203.125 184.844 184.844 203.125 162.5 203.125ZM253.906 137.109C251.875 129.661 248.828 122.552 245.104 116.12L253.568 90.7292 234.271 71.4323 208.88 79.8958C202.109 76.1719 195 73.125 187.552 71.0938L176.042 47.3958 148.958 47.3958 137.109 71.0938C129.661 73.125 122.552 76.1719 116.12 79.8958L90.7292 71.4323 71.4323 90.7292 79.8958 116.12C76.1719 122.891 73.125 130 71.0938 137.448L47.3958 148.958 47.3958 176.042 71.0938 187.891C73.125 195.339 76.1719 202.448 79.8958 208.88L71.4323 234.271 90.7292 253.568 116.12 245.104C122.891 248.828 130 251.875 137.448 253.906L149.297 277.604 176.38 277.604 188.229 253.906C195.677 251.875 202.786 248.828 209.219 245.104L234.609 253.568 253.906 234.271 245.443 208.88C249.167 202.109 252.214 195 254.245 187.552L277.943 175.703 277.943 148.62 253.906 137.109Z" transform="matrix(1 0 0 1.20615 269 92)"/></g></g></g><g clip-path="url(#clip0)"><g clip-path="url(#clip1)"><g clip-path="url(#clip2)"><path d="M115.628 144.535C99.7293 144.535 86.7211 131.527 86.7211 115.628 86.7211 99.7293 99.7293 86.7211 115.628 86.7211 131.527 86.7211 144.535 99.7293 144.535 115.628 144.535 131.527 131.527 144.535 115.628 144.535ZM180.669 97.5613C179.224 92.2617 177.056 87.2029 174.406 82.626L180.428 64.5591 166.697 50.8282 148.63 56.8505C143.813 54.2007 138.754 52.0327 133.454 50.5873L125.264 33.7249 105.993 33.7249 97.5613 50.5873C92.2617 52.0327 87.2029 54.2007 82.626 56.8505L64.5591 50.8282 50.8282 64.5591 56.8505 82.626C54.2007 87.4438 52.0327 92.5026 50.5873 97.8022L33.7249 105.993 33.7249 125.264 50.5873 133.695C52.0327 138.995 54.2007 144.053 56.8505 148.63L50.8282 166.697 64.5591 180.428 82.626 174.406C87.4438 177.056 92.5026 179.224 97.8022 180.669L106.233 197.532 125.505 197.532 133.936 180.669C139.236 179.224 144.294 177.056 148.871 174.406L166.938 180.428 180.669 166.697 174.647 148.63C177.297 143.813 179.465 138.754 180.91 133.454L197.772 125.023 197.772 105.752 180.669 97.5613Z" transform="matrix(0.987053 -0.160393 0.193791 1.19259 447.279 20.355)"/></g></g></g><path d="M43 443 1094 443 1094 413 1154 473.001 1094 533 1094 503 43 503Z" fill="#0D0D0D" fill-rule="evenodd"/><g><g><g><path d="M180.229 133.421 150.128 133.421C147.298 133.421 145.003 135.715 145.003 138.546 145.003 141.376 147.298 143.671 150.128 143.671L180.229 143.671C183.06 143.671 185.354 141.376 185.354 138.546 185.354 135.715 183.06 133.421 180.229 133.421Z" transform="matrix(1 0 0 1.22561 637 53)"/><path d="M165.162 160.583C170.936 160.578 175.717 156.096 176.095 150.333L154.263 150.333C154.623 156.09 159.394 160.577 165.162 160.583Z" transform="matrix(1 0 0 1.22561 637 53)"/><path d="M165.162 35.67 165.162 35.67C141.3 35.833 121.923 54.9977 121.497 78.8567L121.497 80.36C121.612 85.6001 122.642 90.7802 124.538 95.6667 126.303 100.232 128.872 104.444 132.122 108.103 136.174 113.22 139.614 118.793 142.372 124.708 142.946 125.846 144.105 126.571 145.379 126.588L185.013 126.588C186.287 126.571 187.446 125.846 188.019 124.708 190.78 118.794 194.22 113.222 198.269 108.103 201.499 104.435 204.055 100.225 205.82 95.6667 207.664 90.8246 208.692 85.7095 208.861 80.5308L208.861 79.0275C208.508 55.0965 189.095 35.8347 165.162 35.67ZM198.782 80.0867C198.64 84.1207 197.832 88.1039 196.39 91.8742 195.043 95.2597 193.112 98.3822 190.684 101.099 186.846 105.751 183.555 110.83 180.878 116.235L149.479 116.235C146.79 110.829 143.488 105.751 139.639 101.099 137.222 98.3809 135.302 95.2584 133.967 91.8742 132.526 88.1039 131.717 84.1207 131.576 80.0867L131.576 78.8567C131.891 60.5013 146.804 45.7553 165.162 45.6467L165.162 45.6467C183.525 45.755 198.448 60.4958 198.782 78.8567Z" transform="matrix(1 0 0 1.22561 637 53)"/><path d="M148.693 89.9608 166.768 54.6667 166.768 75.0983 185.525 71.3742 166.768 105.917 166.768 85.8608 148.693 89.9608Z" transform="matrix(1 0 0 1.22561 637 53)"/><path d="M262.537 182.894C262.537 197.575 250.636 209.476 235.955 209.476 221.274 209.476 209.373 197.575 209.373 182.894 209.373 168.214 221.274 156.312 235.955 156.312 250.636 156.312 262.537 168.214 262.537 182.894Z" transform="matrix(1 0 0 1.22561 637 53)"/><path d="M120.745 182.894C120.745 197.575 108.844 209.476 94.1633 209.476 79.4827 209.476 67.5817 197.575 67.5817 182.894 67.5817 168.214 79.4827 156.312 94.1633 156.312 108.844 156.312 120.745 168.214 120.745 182.894Z" transform="matrix(1 0 0 1.22561 637 53)"/><path d="M283.788 232.504C276.132 226.541 267.272 222.31 257.822 220.102 250.71 218.027 243.361 216.879 235.955 216.685 228.532 216.669 221.153 217.822 214.088 220.102 207.011 221.988 200.245 224.888 193.998 228.712 193.588 229.19 193.213 229.668 192.768 230.113 202.705 232.787 212 237.435 220.102 243.779 226.494 248.445 230.226 255.922 230.113 263.835L230.113 269.917 289.118 269.917 289.118 243.164C289.221 238.946 287.224 234.953 283.788 232.504Z" transform="matrix(1 0 0 1.22561 637 53)"/><path d="M100.074 263.835C100.082 256.147 103.606 248.884 109.641 244.121L110.051 243.779 110.495 243.472C118.689 237.643 127.752 233.146 137.35 230.147 136.667 229.429 136.052 228.678 135.403 227.926 129.398 224.411 122.92 221.776 116.167 220.102 109.056 218.024 101.706 216.876 94.3 216.685 86.877 216.671 79.4983 217.824 72.4333 220.102 63.1144 222.673 54.3236 226.872 46.4667 232.504 43.1012 235.027 41.0847 238.959 41 243.164L41 269.917 100.074 269.917Z" transform="matrix(1 0 0 1.22561 637 53)"/><path d="M111.896 290.417 111.896 263.835C111.912 259.654 113.884 255.722 117.226 253.209 125.068 247.553 133.864 243.352 143.193 240.807 150.254 238.513 157.635 237.36 165.059 237.39 172.467 237.564 179.818 238.713 186.926 240.807 196.395 242.992 205.27 247.226 212.927 253.209 216.349 255.65 218.334 259.633 218.223 263.835L218.223 290.417Z" transform="matrix(1 0 0 1.22561 637 53)"/><path d="M191.641 203.565C191.641 218.246 179.74 230.147 165.059 230.147 150.379 230.147 138.478 218.246 138.478 203.565 138.478 188.884 150.379 176.983 165.059 176.983 179.74 176.983 191.641 188.884 191.641 203.565Z" transform="matrix(1 0 0 1.22561 637 53)"/></g></g></g><text font-family="Calibri,Calibri_MSFontService,sans-serif" font-weight="700" font-size="153" transform="translate(114.461 639)">DevAgileAgility</text><g><g><g><path d="M122.656 24.5312 34.3438 24.5312 4.90625 62.1458 78.5 135.74 78.5 135.74 152.094 62.1458ZM50.1909 65.4167 71.6312 115.002 22.0454 65.4167ZM99.7604 65.4167 78.5 114.479 57.2396 65.4167ZM56.7653 58.875 64.3046 34.3438 92.6954 34.3438 100.235 58.875ZM106.809 65.4167 134.938 65.4167 85.4015 114.953ZM137.081 58.875 107.087 58.875 99.5315 34.3438 117.881 34.3438ZM39.1192 34.3438 57.4685 34.3438 49.9129 58.875 19.9194 58.875Z" transform="matrix(1 0 0 1.22293 997 19)"/></g></g></g></g></svg>