<svg width="1280" height="720" xmlns="http://www.w3.org/2000/svg" xmlns:xlink="http://www.w3.org/1999/xlink" overflow="hidden"><g><rect x="0" y="0" width="1280" height="720" fill="#FFFFFF"/><g><g><g><path d="M1043 208 993 208 993 152 1043 152 1043 208ZM987 146 987 152 985.7 152C984.1 152.1 983 153.4 983 155 982.9 156.6 984.1 157.9 985.7 158L987 158 987 162 985.7 162C984 162 982.7 163.3 982.7 165 982.7 166.7 984 168 985.7 168L987 168 987 172 985.7 172C984 172 982.7 173.3 982.7 175 982.7 176.7 984 178 985.7 178L987 178 987 182 985.7 182C984 182 982.7 183.3 982.7 185 982.7 186.7 984 188 985.7 188L987 188 987 192 985.7 192C984 192 982.7 193.3 982.7 195 982.7 196.7 984 198 985.7 198L987 198 987 202 985.7 202C984 202 982.7 203.3 982.7 205 982.7 206.7 984 208 985.7 208L987 208 987 214 1049 214 1049 146 987 146Z" fill="#BF9000"/><path d="M1007 190C1009.2 190 1011 191.8 1011 194 1011 196.2 1009.2 198 1007 198 1004.8 198 1003 196.2 1003 194 1003 191.8 1004.8 190 1007 190ZM1007 202C1011 202 1014.4 199 1014.9 195 1015.4 191 1012.9 187.3 1009 186.3L1009 184C1009 182.9 1009.9 182 1011 182L1025 182C1028.3 182 1031 179.3 1031 176L1031 164.8 1033.6 167.4C1034.4 168.2 1035.6 168.2 1036.4 167.4 1037.2 166.6 1037.2 165.4 1036.4 164.6L1030.4 158.6C1030 158.2 1029.5 158 1029 158 1028.5 158 1028 158.2 1027.6 158.6L1021.6 164.6C1020.8 165.4 1020.8 166.6 1021.6 167.4 1022.4 168.2 1023.6 168.2 1024.4 167.4L1027 164.8 1027 176C1027 177.1 1026.1 178 1025 178L1011 178C1007.7 178 1005 180.7 1005 184L1005 186.3C1001.1 187.3 998.6 191.1 999.1 195 999.6 199 1003 202 1007 202Z" fill="#BF9000"/><path d="M1036.4 186.6C1036 186.2 1035.5 186 1035 186 1034.5 186 1034 186.2 1033.6 186.6L1029 191.2 1024.4 186.6C1023.6 185.8 1022.4 185.8 1021.6 186.6 1020.8 187.4 1020.8 188.6 1021.6 189.4L1026.2 194 1021.6 198.6C1020.8 199.4 1020.8 200.6 1021.6 201.4 1022.4 202.2 1023.6 202.2 1024.4 201.4L1029 196.8 1033.6 201.4C1034.4 202.2 1035.6 202.2 1036.4 201.4 1037.2 200.6 1037.2 199.4 1036.4 198.6L1031.8 194 1036.4 189.4C1037.2 188.6 1037.2 187.4 1036.4 186.6Z" fill="#BF9000"/><path d="M999.6 173.4C1000 173.8 1000.5 174 1001 174 1001.5 174 1002 173.8 1002.4 173.4L1007 168.8 1011.6 173.4C1012.4 174.2 1013.6 174.2 1014.4 173.4 1015.2 172.6 1015.2 171.4 1014.4 170.6L1009.8 166 1014.4 161.4C1015.2 160.6 1015.2 159.4 1014.4 158.6 1013.6 157.8 1012.4 157.8 1011.6 158.6L1007 163.2 1002.4 158.6C1001.6 157.8 1000.4 157.8 999.6 158.6 998.8 159.4 998.8 160.6 999.6 161.4L1004.2 166 999.6 170.6C998.8 171.4 998.8 172.6 999.6 173.4Z" fill="#BF9000"/></g></g></g><g><g><g><path d="M774 153C754 154 738 170.8 738 191 738 212 755 229 776 229 785.5 229 794.4 225.6 801.4 219.2L774 191.8 774 153Z" fill="#ED7D31"/><path d="M778 153 778 189 813.9 189C812.9 169.5 797.4 154 778 153Z" fill="#ED7D31"/><path d="M780.8 193 804.2 216.4C810.1 209.9 813.5 201.7 813.9 193L780.8 193Z" fill="#ED7D31"/></g></g></g><g><g><g><path d="M774 417.1 774 421.1C774.7 421.1 775.3 421 776 421 776.7 421 777.3 421 778 421.1L778 417.1C781.9 417.3 785.6 418.1 789 419.4L787.5 423C788.8 423.5 790 424 791.2 424.6L792.7 420.9C794.6 421.8 796.3 422.9 798 424.1L802.3 419.8C795 414.3 785.9 411 776 411 751.7 411 732 430.7 732 455L732 459 738 459 738 455C738 450.9 738.7 446.9 739.9 443.2L743.6 444.7C744 443.4 744.5 442.2 745 441L741.3 439.5C742.8 436.1 744.9 432.9 747.3 430.2L750.1 433C751 432 751.9 431 752.9 430.1L750.1 427.3C752.8 424.8 755.9 422.6 759.3 420.9L760.8 424.6C762 424 763.2 423.5 764.5 423L763 419.3C766.4 418 770.1 417.3 774 417.1Z" fill="#00B050"/><path d="M812.1 429.8 807.8 434.1C808.9 435.8 809.9 437.6 810.7 439.4L807 441C807.5 442.2 808 443.5 808.4 444.7L812.1 443.2C813.3 446.9 814 450.9 814 455L814 459 820 459 820 455C820 445.6 817.1 437 812.1 429.8Z" fill="#00B050"/><path d="M773.2 453.2C773 453.3 772.9 453.5 772.7 453.7 771.3 455.4 771.5 457.9 773.2 459.4 774.9 460.8 777.4 460.6 778.9 458.9L810 422 773.2 453.2Z" fill="#00B050"/></g></g></g><g><g><g><path d="M474.75 415.05 465.94 415.05C465.112 415.05 464.44 415.722 464.44 416.55 464.44 417.378 465.112 418.05 465.94 418.05L474.75 418.05C475.578 418.05 476.25 417.378 476.25 416.55 476.25 415.722 475.578 415.05 474.75 415.05Z" fill="#385723"/><path d="M470.34 423C472.03 422.998 473.429 421.686 473.54 420L467.15 420C467.255 421.685 468.652 422.998 470.34 423Z" fill="#385723"/><path d="M470.34 386.44 470.34 386.44C463.356 386.488 457.685 392.097 457.56 399.08L457.56 399.52C457.594 401.054 457.895 402.57 458.45 404 458.967 405.336 459.719 406.569 460.67 407.64 461.856 409.138 462.863 410.769 463.67 412.5 463.838 412.833 464.177 413.045 464.55 413.05L476.15 413.05C476.523 413.045 476.862 412.833 477.03 412.5 477.838 410.769 478.845 409.138 480.03 407.64 480.975 406.566 481.723 405.334 482.24 404 482.78 402.583 483.081 401.086 483.13 399.57L483.13 399.13C483.027 392.126 477.345 386.488 470.34 386.44ZM480.18 399.44C480.139 400.621 479.902 401.786 479.48 402.89 479.086 403.881 478.521 404.795 477.81 405.59 476.686 406.952 475.724 408.438 474.94 410.02L465.75 410.02C464.963 408.438 463.997 406.951 462.87 405.59 462.163 404.794 461.601 403.88 461.21 402.89 460.788 401.786 460.551 400.621 460.51 399.44L460.51 399.08C460.602 393.708 464.967 389.392 470.34 389.36L470.34 389.36C475.715 389.392 480.082 393.706 480.18 399.08Z" fill="#385723"/><path d="M465.52 402.33 470.81 392 470.81 397.98 476.3 396.89 470.81 407 470.81 401.13 465.52 402.33Z" fill="#385723"/><path d="M498.84 429.53C498.84 433.827 495.357 437.31 491.06 437.31 486.763 437.31 483.28 433.827 483.28 429.53 483.28 425.233 486.763 421.75 491.06 421.75 495.357 421.75 498.84 425.233 498.84 429.53Z" fill="#385723"/><path d="M457.34 429.53C457.34 433.827 453.857 437.31 449.56 437.31 445.263 437.31 441.78 433.827 441.78 429.53 441.78 425.233 445.263 421.75 449.56 421.75 453.857 421.75 457.34 425.233 457.34 429.53Z" fill="#385723"/><path d="M505.06 444.05C502.819 442.305 500.226 441.066 497.46 440.42 495.379 439.813 493.228 439.477 491.06 439.42 488.887 439.415 486.728 439.753 484.66 440.42 482.589 440.972 480.608 441.821 478.78 442.94 478.66 443.08 478.55 443.22 478.42 443.35 481.328 444.133 484.049 445.493 486.42 447.35 488.291 448.716 489.383 450.904 489.35 453.22L489.35 455 506.62 455 506.62 447.17C506.65 445.935 506.066 444.767 505.06 444.05Z" fill="#385723"/><path d="M451.29 453.22C451.292 450.97 452.324 448.844 454.09 447.45L454.21 447.35 454.34 447.26C456.738 445.554 459.391 444.238 462.2 443.36 462 443.15 461.82 442.93 461.63 442.71 459.873 441.681 457.977 440.91 456 440.42 453.919 439.812 451.767 439.476 449.6 439.42 447.427 439.416 445.268 439.753 443.2 440.42 440.473 441.172 437.9 442.401 435.6 444.05 434.615 444.788 434.025 445.939 434 447.17L434 455 451.29 455Z" fill="#385723"/><path d="M454.75 461 454.75 453.22C454.755 451.996 455.332 450.845 456.31 450.11 458.605 448.454 461.18 447.225 463.91 446.48 465.977 445.809 468.137 445.471 470.31 445.48 472.478 445.531 474.63 445.867 476.71 446.48 479.481 447.12 482.079 448.359 484.32 450.11 485.322 450.824 485.902 451.99 485.87 453.22L485.87 461Z" fill="#385723"/><path d="M478.09 435.58C478.09 439.877 474.607 443.36 470.31 443.36 466.013 443.36 462.53 439.877 462.53 435.58 462.53 431.283 466.013 427.8 470.31 427.8 474.607 427.8 478.09 431.283 478.09 435.58Z" fill="#385723"/></g></g></g><g><g><g><path d="M172 398 222 398 222 466 172 466 172 398ZM166 472 228 472 228 392 166 392 166 472Z" fill="#385723"/><path d="M199 407 216 407 216 411 199 411Z" fill="#385723"/><path d="M199 423 216 423 216 427 199 427Z" fill="#385723"/><path d="M199 455 216 455 216 459 199 459Z" fill="#385723"/><path d="M199 439 216 439 216 443 199 443Z" fill="#385723"/><path d="M192.8 404.8 190 402 183.4 408.6 180.8 406 178 408.8 183.4 414.2Z" fill="#385723"/><path d="M192.8 420.8 190 418 183.4 424.6 180.8 422 178 424.8 183.4 430.2Z" fill="#385723"/><path d="M192.8 436.8 190 434 183.4 440.6 180.8 438 178 440.8 183.4 446.2Z" fill="#385723"/><path d="M192.8 452.6 190 449.8 183.4 456.4 180.8 453.8 178 456.6 183.4 462Z" fill="#385723"/></g></g></g><g><g><g><path d="M993 393 1043 393 1043 461 993 461 993 393ZM987 467 1049 467 1049 387 987 387 987 467Z" fill="#525252"/><path d="M1000 399 1008 399 1008 407 1000 407Z" fill="#525252"/><path d="M1016 401 1036 401 1036 405 1016 405Z" fill="#525252"/><path d="M1000 415 1008 415 1008 423 1000 423Z" fill="#525252"/><path d="M1016 417 1036 417 1036 421 1016 421Z" fill="#525252"/><path d="M1000 431 1008 431 1008 439 1000 439Z" fill="#525252"/><path d="M1016 433 1036 433 1036 437 1016 437Z" fill="#525252"/><path d="M1000 447 1008 447 1008 455 1000 455Z" fill="#525252"/><path d="M1016 449 1036 449 1036 453 1016 453Z" fill="#525252"/></g></g></g><g><g><g><path d="M196 202 216 202C217.7 202 219 203.3 219 205 219 206.7 217.7 208 216 208L196 208C194.3 208 193 206.7 193 205 193 203.3 194.3 202 196 202Z" fill="#0070C0"/><path d="M196 212 216 212C217.7 212 219 213.3 219 215 219 216.7 217.7 218 216 218L196 218C194.3 218 193 216.7 193 215 193 213.3 194.3 212 196 212Z" fill="#0070C0"/><path d="M199.5 222C199.8 225.4 202.6 228 206 228 209.4 228 212.2 225.4 212.5 222L199.5 222Z" fill="#0070C0"/><path d="M206 144C206 144 206 144 206 144 206 144 206 144 206 144 191.8 144.1 180.3 155.5 180 169.7L180 170.6C180.1 173.7 180.7 176.7 181.8 179.6 182.9 182.3 184.4 184.8 186.3 187 188.7 189.6 191.3 194.7 192.4 196.9 192.7 197.6 193.4 198 194.2 198L217.8 198C218.6 198 219.3 197.6 219.6 196.9 220.7 194.7 223.3 189.6 225.7 187 227.6 184.8 229.2 182.3 230.2 179.6 231.3 176.7 231.9 173.7 232 170.6L232 169.7C231.7 155.5 220.2 144.1 206 144ZM226 170.5C225.9 172.9 225.4 175.3 224.6 177.5 223.8 179.5 222.7 181.4 221.2 183 218.9 185.8 216.9 188.8 215.4 192L206 192 196.7 192C195.1 188.8 193.1 185.8 190.9 183 189.5 181.4 188.3 179.5 187.5 177.5 186.6 175.3 186.2 172.9 186.1 170.5L186.1 169.7C186.3 158.8 195.2 150 206.1 149.9L206.1 149.9 206.1 149.9C206.1 149.9 206.1 149.9 206.1 149.9 206.1 149.9 206.1 149.9 206.1 149.9L206.1 149.9 206.1 149.9C217 150 225.9 158.7 226.1 169.7L226.1 170.5Z" fill="#0070C0"/></g></g></g><path d="M281.5 184 296.5 184 296.5 189 281.5 189ZM301.5 184 316.5 184 316.5 189 301.5 189ZM321.5 184 336.5 184 336.5 189 321.5 189ZM341.5 184 356.5 184 356.5 189 341.5 189ZM361.5 184 365 184 365 189 361.5 189ZM362.5 179 377.5 186.5 362.5 194Z" fill="#7F7F7F"/><path d="M608.5 184 623.5 184 623.5 189 608.5 189ZM628.5 184 643.5 184 643.5 189 628.5 189ZM648.5 184 663.5 184 663.5 189 648.5 189ZM668.5 184 683.5 184 683.5 189 668.5 189ZM688.5 184 692 184 692 189 688.5 189ZM689.5 179 704.5 186.5 689.5 194Z" fill="#7F7F7F"/><path d="M855.5 185 870.5 185 870.5 190 855.5 190ZM875.5 185 890.5 185 890.5 190 875.5 190ZM895.5 185 910.5 185 910.5 190 895.5 190ZM915.5 185 930.5 185 930.5 190 915.5 190ZM935.5 185 939 185 939 190 935.5 190ZM936.5 180 951.5 187.5 936.5 195Z" fill="#7F7F7F"/><g><g><g><path d="M502 154 448 154 430 177 475 222 475 222 520 177ZM457.69 179 470.8 209.32 440.48 179ZM488 179 475 209 462 179ZM461.71 175 466.32 160 483.68 160 488.29 175ZM492.31 179 509.51 179 479.22 209.29ZM510.82 175 492.48 175 487.86 160 499.08 160ZM450.92 160 462.14 160 457.52 175 439.18 175Z" fill="#7030A0"/></g></g></g><text fill="#7F7F7F" font-family="Calibri,Calibri_MSFontService,sans-serif" font-weight="700" font-size="19" transform="translate(135.098 256)">Idea / Work / Process</text><text fill="#7F7F7F" font-family="Calibri,Calibri_MSFontService,sans-serif" font-weight="700" font-size="19" transform="translate(384.175 502)">Collaborate &amp; Develop</text><text fill="#7F7F7F" font-family="Calibri,Calibri_MSFontService,sans-serif" font-weight="700" font-size="19" transform="translate(381.822 257)">Prioritize by Business Value</text><text fill="#7F7F7F" font-family="Calibri,Calibri_MSFontService,sans-serif" font-weight="700" font-size="19" transform="translate(695.473 253)">Allocate Capacity</text><path d="M1019 285.5 1019 300.5 1014 300.5 1014 285.5ZM1019 305.5 1019 320.5 1014 320.5 1014 305.5ZM1019 325.5 1019 340.5 1014 340.5 1014 325.5ZM1019 345.5 1019 347.954 1014 347.954 1014 345.5ZM1024 345.454 1016.5 360.454 1009 345.454Z" fill="#7F7F7F"/><path d="M2.52924e-06-2.5 15-2.49998 15 2.50002-2.52924e-06 2.5ZM20-2.49998 35-2.49996 35 2.50004 20 2.50002ZM40-2.49996 55-2.49994 55 2.50006 40 2.50004ZM60-2.49994 75-2.49992 75 2.50008 60 2.50006ZM80-2.49992 91.2733-2.49991 91.2733 2.50009 80 2.50008ZM88.7733-7.49991 103.773 0.000104987 88.7733 7.50009Z" fill="#7F7F7F" transform="matrix(-1 0 0 1 951.273 435.5)"/><path d="M2.52924e-06-2.5 15-2.49998 15 2.50002-2.52924e-06 2.5ZM20-2.49998 35-2.49996 35 2.50004 20 2.50002ZM40-2.49996 55-2.49994 55 2.50006 40 2.50004ZM60-2.49994 75-2.49992 75 2.50008 60 2.50006ZM80-2.49992 91.2733-2.49991 91.2733 2.50009 80 2.50008ZM88.7733-7.49991 103.773 0.000104987 88.7733 7.50009Z" fill="#7F7F7F" transform="matrix(-1 0 0 1 704.273 435.5)"/><path d="M2.52924e-06-2.5 15-2.49998 15 2.50002-2.52924e-06 2.5ZM20-2.49998 35-2.49996 35 2.50004 20 2.50002ZM40-2.49996 55-2.49994 55 2.50006 40 2.50004ZM60-2.49994 75-2.49992 75 2.50008 60 2.50006ZM80-2.49992 91.2733-2.49991 91.2733 2.50009 80 2.50008ZM88.7733-7.49991 103.773 0.000104987 88.7733 7.50009Z" fill="#7F7F7F" transform="matrix(-1 0 0 1 385.273 432.5)"/><path d="M2.5-3.5307e-06 2.50002 15-2.49998 15-2.5 3.5307e-06ZM2.50003 20 2.50005 35-2.49995 35-2.49997 20ZM2.50006 40 2.50008 55-2.49992 55-2.49994 40ZM2.50008 60 2.50009 61.8385-2.49991 61.8385-2.49992 60ZM7.50008 59.3385 0.000104987 74.3385-7.49992 59.3385Z" fill="#7F7F7F" transform="matrix(1 0 0 -1 197.5 359.839)"/><text fill="#7F7F7F" font-family="Calibri,Calibri_MSFontService,sans-serif" font-weight="700" font-size="19" transform="translate(112.532 502)">Review</text><text fill="#7F7F7F" font-family="Calibri,Calibri_MSFontService,sans-serif" font-weight="700" font-size="19" transform="translate(172.739 502)">&amp;</text><text fill="#7F7F7F" font-family="Calibri,Calibri_MSFontService,sans-serif" font-weight="700" font-size="19" transform="translate(190.072 502)">Accept</text><text fill="#7F7F7F" font-family="Calibri,Calibri_MSFontService,sans-serif" font-weight="700" font-size="19" transform="translate(246.999 502)">by</text><text fill="#7F7F7F" font-family="Calibri,Calibri_MSFontService,sans-serif" font-weight="700" font-size="19" transform="translate(269.899 502)">Don</text><text fill="#7F7F7F" font-family="Calibri,Calibri_MSFontService,sans-serif" font-weight="700" font-size="19" transform="translate(301.732 502)">e</text><text fill="#7F7F7F" font-family="Calibri,Calibri_MSFontService,sans-serif" font-weight="700" font-size="19" transform="translate(657.904 502)">Create Key Progress Indicators</text><text fill="#7F7F7F" font-family="Calibri,Calibri_MSFontService,sans-serif" font-weight="700" font-size="19" transform="translate(935.787 502)">Create a Business Case</text><text fill="#7F7F7F" font-family="Calibri,Calibri_MSFontService,sans-serif" font-weight="700" font-size="19" transform="translate(913.003 256)">Strategize &amp; Prepare Roadmap</text></g></svg>